SplineFontDB: 3.0
FontName: Oh
FullName: Oh
FamilyName: Oh
Weight: Regular

StartChar: a
Encoding: 97 97 0
Width: 1000
VWidth: 0
Flags: H
LayerCount: 2
Back
Fore
SplineSet
927.2890625 359.510742188 m 4
 927.2890625 330.829101562 921.717773438 284.952148438 914.8515625 257.104492188 c 0
 748.091796875 298.220703125 l 0
 752.201171875 314.88671875 755.536132812 342.344726562 755.536132812 359.510742188 c 4
 927.2890625 359.510742188 l 4
EndSplineSet
Validated: 524289
EndChar

StartChar: Y
Encoding: 89 89 1
Width: 1000
VWidth: 0
Flags: H
LayerCount: 2
Back
Fore
SplineSet
243.484375 359.510742188 m 4
 243.484375 500.9140625 358.111328125 615.544921875 499.509765625 615.544921875 c 4
 640.909179688 615.544921875 755.536132812 500.9140625 755.536132812 359.510742188 c 4
 755.536132812 218.106445312 640.909179688 103.475585938 499.509765625 103.475585938 c 4
 358.111328125 103.475585938 243.484375 218.106445312 243.484375 359.510742188 c 4
71.7314453125 359.510742188 m 4
 71.7314453125 123.24609375 263.25390625 -68.283203125 499.509765625 -68.283203125 c 4
 735.766601562 -68.283203125 927.2890625 123.24609375 927.2890625 359.510742188 c 4
 927.2890625 595.774414062 735.766601562 787.3046875 499.509765625 787.3046875 c 4
 263.25390625 787.3046875 71.7314453125 595.774414062 71.7314453125 359.510742188 c 4
EndSplineSet
Validated: 524297
EndChar

StartChar: y
Encoding: 121 121 2
Width: 1000
VWidth: 0
Flags: HW
LayerCount: 2
Back
Fore
SplineSet
927.2890625 359.510742188 m 4
 927.2890625 223.171875 831.46484375 57.1953125 713.395507812 -10.97265625 c 0
 658.6015625 -42.6083984375 562.780273438 -68.283203125 499.509765625 -68.283203125 c 0
 436.235351562 -68.283203125 340.409179688 -42.6044921875 285.612304688 -10.96484375 c 0
 167.549804688 57.2041015625 71.7314453125 223.177734375 71.7314453125 359.510742188 c 0
 71.7314453125 359.514648438 71.7314453125 359.521484375 71.7314453125 359.525390625 c 0
 243.484375 359.51953125 l 0
 243.484375 359.516601562 243.484375 359.512695312 243.484375 359.510742188 c 0
 243.484375 277.915039062 300.83203125 178.580078125 371.4921875 137.78125 c 0
 404.288085938 118.844726562 461.640625 103.475585938 499.509765625 103.475585938 c 0
 537.377929688 103.475585938 594.7265625 118.842773438 627.520507812 137.776367188 c 0
 698.185546875 178.575195312 755.536132812 277.912109375 755.536132812 359.510742188 c 4
 927.2890625 359.510742188 l 4
EndSplineSet
Validated: 524289
EndChar

StartChar: z
Encoding: 122 122 3
Width: 1000
VWidth: 0
Flags: HW
LayerCount: 2
Back
Fore
SplineSet
927.2890625 359.510742188 m 4
 927.2890625 216.755859375 824.704101562 47.0556640625 698.3046875 -19.2841796875 c 0
 646.770507812 -46.33203125 557.7109375 -68.283203125 499.509765625 -68.283203125 c 0
 425.924804688 -68.283203125 317.0546875 -34.35546875 256.49609375 7.4482421875 c 0
 154.505859375 77.8525390625 71.7314453125 235.577148438 71.7314453125 359.510742188 c 0
 71.7314453125 373.798828125 73.12890625 396.90625 74.8515625 411.08984375 c 0
 245.352539062 390.380859375 l 0
 244.321289062 381.891601562 243.484375 368.061523438 243.484375 359.510742188 c 0
 243.484375 285.3359375 293.025390625 190.938476562 354.06640625 148.80078125 c 0
 390.310546875 123.78125 455.469726562 103.475585938 499.509765625 103.475585938 c 0
 534.342773438 103.475585938 587.645507812 116.61328125 618.489257812 132.801757812 c 0
 694.138671875 172.505859375 755.536132812 274.071289062 755.536132812 359.510742188 c 4
 927.2890625 359.510742188 l 4
EndSplineSet
Validated: 524289
EndChar

StartChar: X
Encoding: 88 88 4
Width: 1000
VWidth: 0
Flags: H
LayerCount: 2
Back
Fore
SplineSet
927.2890625 359.510742188 m 4
 927.2890625 130.395507812 741.432617188 -61.1689453125 512.430664062 -68.0888671875 c 0
 508.865234375 -68.1962890625 503.077148438 -68.283203125 499.509765625 -68.283203125 c 0
 277.227539062 -68.283203125 85.9326171875 111.796875 72.51171875 333.680664062 c 0
 72.0810546875 340.803710938 71.7314453125 352.375 71.7314453125 359.510742188 c 0
 71.7314453125 575.166992188 246.032226562 766.032226562 460.796875 785.548828125 c 0
 471.459960938 786.517578125 488.803710938 787.3046875 499.509765625 787.3046875 c 0
 708.70703125 787.3046875 898.955078125 618.75390625 924.170898438 411.07421875 c 0
 753.668945312 390.372070312 l 0
 738.578125 514.666992188 624.71484375 615.544921875 499.509765625 615.544921875 c 0
 493.102539062 615.544921875 482.721679688 615.07421875 476.340820312 614.494140625 c 0
 347.803710938 602.813476562 243.484375 488.581054688 243.484375 359.510742188 c 0
 243.484375 355.240234375 243.693359375 348.314453125 243.951171875 344.051757812 c 0
 251.983398438 211.25390625 366.474609375 103.475585938 499.509765625 103.475585938 c 0
 501.64453125 103.475585938 505.109375 103.528320312 507.243164062 103.592773438 c 0
 644.30078125 107.734375 755.536132812 222.385742188 755.536132812 359.510742188 c 4
 927.2890625 359.510742188 l 4
EndSplineSet
Validated: 524289
EndChar

StartChar: W
Encoding: 87 87 5
Width: 1000
VWidth: 0
Flags: HW
LayerCount: 2
Back
Fore
SplineSet
927.2890625 359.510742188 m 4
 927.2890625 137.220703125 747.215820312 -54.08203125 525.338867188 -67.5029296875 c 0
 518.216796875 -67.93359375 506.645507812 -68.283203125 499.509765625 -68.283203125 c 0
 290.313476562 -68.283203125 100.065429688 100.267578125 74.849609375 307.946289062 c 0
 73.1279296875 322.125976562 71.7314453125 345.2265625 71.7314453125 359.510742188 c 0
 71.7314453125 556.310546875 228.831054688 744.823242188 422.401367188 780.296875 c 0
 443.5078125 784.165039062 478.052734375 787.3046875 499.509765625 787.3046875 c 0
 684.509765625 787.3046875 870.5859375 641.517578125 914.859375 461.88671875 c 0
 748.096679688 420.783203125 l 0
 721.599609375 528.291992188 610.232421875 615.544921875 499.509765625 615.544921875 c 0
 486.66796875 615.544921875 465.993164062 613.666015625 453.360351562 611.3515625 c 0
 337.508789062 590.120117188 243.484375 477.295898438 243.484375 359.510742188 c 0
 243.484375 350.961914062 244.3203125 337.135742188 245.350585938 328.649414062 c 0
 260.442382812 204.353515625 374.305664062 103.475585938 499.509765625 103.475585938 c 0
 503.780273438 103.475585938 510.706054688 103.684570312 514.96875 103.942382812 c 0
 647.76171875 111.975585938 755.536132812 226.469726562 755.536132812 359.510742188 c 4
 927.2890625 359.510742188 l 4
EndSplineSet
Validated: 524289
EndChar

StartChar: V
Encoding: 86 86 6
Width: 1000
VWidth: 0
Flags: H
LayerCount: 2
Back
Fore
SplineSet
927.2890625 359.510742188 m 4
 927.2890625 143.853515625 752.987304688 -47.01171875 538.223632812 -66.5283203125 c 0
 527.560546875 -67.4970703125 510.216796875 -68.283203125 499.509765625 -68.283203125 c 0
 302.716796875 -68.283203125 114.2109375 88.822265625 78.73828125 282.399414062 c 0
 74.8701171875 303.505859375 71.7314453125 338.051757812 71.7314453125 359.510742188 c 0
 71.7314453125 538.828125 211.9140625 723.440429688 384.638671875 771.591796875 c 0
 415.75 780.265625 467.212890625 787.3046875 499.509765625 787.3046875 c 0
 662.502929688 787.3046875 841.694335938 663.612304688 899.491210938 511.20703125 c 0
 738.8984375 450.30078125 l 0
 704.307617188 541.515625 597.061523438 615.544921875 499.509765625 615.544921875 c 0
 480.1796875 615.544921875 449.379882812 611.33203125 430.759765625 606.141601562 c 0
 327.383789062 577.322265625 243.484375 466.83203125 243.484375 359.510742188 c 0
 243.484375 346.66796875 245.36328125 325.9921875 247.677734375 313.359375 c 0
 268.908203125 197.50390625 381.729492188 103.475585938 499.509765625 103.475585938 c 0
 505.91796875 103.475585938 516.297851562 103.946289062 522.6796875 104.526367188 c 0
 651.216796875 116.20703125 755.536132812 230.439453125 755.536132812 359.510742188 c 4
 927.2890625 359.510742188 l 4
EndSplineSet
Validated: 524289
EndChar

StartChar: U
Encoding: 85 85 7
Width: 1000
VWidth: 0
Flags: H
LayerCount: 2
Back
Fore
SplineSet
927.2890625 359.510742188 m 4
 927.2890625 150.306640625 758.744140625 -39.9482421875 551.072265625 -65.1650390625 c 0
 536.893554688 -66.88671875 513.793945312 -68.283203125 499.509765625 -68.283203125 c 0
 314.510742188 -68.283203125 128.43359375 77.5029296875 84.1611328125 257.133789062 c 0
 77.2998046875 284.97265625 71.7314453125 330.837890625 71.7314453125 359.510742188 c 0
 71.7314453125 522.508789062 195.418945312 701.706054688 347.819335938 759.504882812 c 0
 388.280273438 774.850585938 456.237304688 787.3046875 499.509765625 787.3046875 c 0
 642.258789062 787.3046875 811.953125 684.716796875 878.291015625 558.314453125 c 0
 726.2109375 478.494140625 l 0
 686.506835938 554.146484375 584.9453125 615.544921875 499.509765625 615.544921875 c 0
 473.611328125 615.544921875 432.938476562 608.091796875 408.72265625 598.907226562 c 0
 317.51171875 564.314453125 243.484375 457.064453125 243.484375 359.510742188 c 0
 243.484375 342.349609375 246.817382812 314.899414062 250.923828125 298.23828125 c 0
 277.420898438 190.729492188 388.788085938 103.475585938 499.509765625 103.475585938 c 0
 508.05859375 103.475585938 521.883789062 104.3125 530.370117188 105.342773438 c 0
 654.662109375 120.434570312 755.536132812 234.301757812 755.536132812 359.510742188 c 4
 927.2890625 359.510742188 l 4
EndSplineSet
Validated: 524289
EndChar

StartChar: T
Encoding: 84 84 8
Width: 1000
VWidth: 0
Flags: H
LayerCount: 2
Back
Fore
SplineSet
927.2890625 359.510742188 m 4
 927.2890625 156.588867188 764.479492188 -32.880859375 563.875 -63.4130859375 c 0
 546.211914062 -66.1015625 517.376953125 -68.283203125 499.509765625 -68.283203125 c 0
 325.758789062 -68.283203125 142.791015625 66.3515625 91.099609375 232.2421875 c 0
 80.408203125 266.5546875 71.7314453125 323.5703125 71.7314453125 359.510742188 c 0
 71.7314453125 507.1796875 179.48046875 679.4921875 312.244140625 744.135742188 c 0
 361.18359375 767.96484375 445.078125 787.3046875 499.509765625 787.3046875 c 0
 623.444335938 787.3046875 781.165039062 704.522460938 851.567382812 602.522460938 c 0
 710.216796875 504.953125 l 0
 668.081054688 566 573.684570312 615.544921875 499.509765625 615.544921875 c 0
 466.932617188 615.544921875 416.721679688 603.970703125 387.431640625 589.708984375 c 0
 307.97265625 551.01953125 243.484375 447.890625 243.484375 359.510742188 c 0
 243.484375 338 248.677734375 303.875976562 255.077148438 283.33984375 c 0
 286.013671875 184.0546875 395.51953125 103.475585938 499.509765625 103.475585938 c 0
 510.203125 103.475585938 527.4609375 104.78125 538.032226562 106.390625 c 0
 658.094726562 124.6640625 755.536132812 238.061523438 755.536132812 359.510742188 c 4
 927.2890625 359.510742188 l 4
EndSplineSet
Validated: 524289
EndChar

StartChar: j
Encoding: 106 106 9
Width: 1000
VWidth: 0
Flags: H
LayerCount: 2
Back
Fore
SplineSet
927.2890625 359.510742188 m 4
 927.2890625 174.494140625 781.498046875 -11.5908203125 601.861328125 -55.8583984375 c 0
 560.767578125 110.912109375 l 0
 668.279296875 137.40625 755.536132812 248.778320312 755.536132812 359.510742188 c 4
 927.2890625 359.510742188 l 4
EndSplineSet
Validated: 524289
EndChar

StartChar: S
Encoding: 83 83 10
Width: 1000
VWidth: 0
Flags: H
LayerCount: 2
Back
Fore
SplineSet
927.2890625 359.510742188 m 4
 927.2890625 156.588867188 764.479492188 -32.880859375 563.875 -63.4130859375 c 0
 546.211914062 -66.1015625 517.376953125 -68.283203125 499.509765625 -68.283203125 c 0
 325.758789062 -68.283203125 142.791015625 66.3515625 91.099609375 232.2421875 c 0
 80.408203125 266.5546875 71.7314453125 323.5703125 71.7314453125 359.510742188 c 0
 71.7314453125 507.1796875 179.48046875 679.4921875 312.244140625 744.135742188 c 0
 361.18359375 767.96484375 445.078125 787.3046875 499.509765625 787.3046875 c 0
 623.444335938 787.3046875 781.165039062 704.522460938 851.567382812 602.522460938 c 0
 710.216796875 504.953125 l 0
 668.081054688 566 573.684570312 615.544921875 499.509765625 615.544921875 c 0
 466.932617188 615.544921875 416.721679688 603.970703125 387.431640625 589.708984375 c 0
 307.97265625 551.01953125 243.484375 447.890625 243.484375 359.510742188 c 0
 243.484375 338 248.677734375 303.875976562 255.077148438 283.33984375 c 0
 286.013671875 184.0546875 395.51953125 103.475585938 499.509765625 103.475585938 c 0
 510.203125 103.475585938 527.4609375 104.78125 538.032226562 106.390625 c 0
 658.094726562 124.6640625 755.536132812 238.061523438 755.536132812 359.510742188 c 4
 927.2890625 359.510742188 l 4
EndSplineSet
Validated: 524289
EndChar

StartChar: R
Encoding: 82 82 11
Width: 1000
VWidth: 0
Flags: H
LayerCount: 2
Back
Fore
SplineSet
927.2890625 359.510742188 m 4
 927.2890625 168.678710938 775.866210938 -18.7041015625 589.291992188 -58.755859375 c 0
 564.791015625 -64.0146484375 524.569335938 -68.283203125 499.509765625 -68.283203125 c 0
 346.836914062 -68.283203125 172.076171875 44.712890625 109.41796875 183.940429688 c 0
 88.6142578125 230.165039062 71.7314453125 308.8203125 71.7314453125 359.510742188 c 0
 71.7314453125 478.934570312 149.795898438 633.301757812 245.984375 704.079101562 c 0
 308.416992188 750.01953125 421.997070312 787.3046875 499.509765625 787.3046875 c 0
 589.065429688 787.3046875 716.150390625 739.104492188 783.18359375 679.715820312 c 0
 669.288085938 551.153320312 l 0
 629.169921875 586.697265625 553.109375 615.544921875 499.509765625 615.544921875 c 0
 453.118164062 615.544921875 385.141601562 593.23046875 347.774414062 565.735351562 c 0
 290.206054688 523.374023438 243.484375 430.986328125 243.484375 359.510742188 c 0
 243.484375 329.171875 253.588867188 282.096679688 266.040039062 254.431640625 c 0
 303.541015625 171.103515625 408.135742188 103.475585938 499.509765625 103.475585938 c 0
 514.5078125 103.475585938 538.581054688 106.030273438 553.244140625 109.178710938 c 0
 664.909179688 133.149414062 755.536132812 245.297851562 755.536132812 359.510742188 c 4
 927.2890625 359.510742188 l 4
EndSplineSet
Validated: 524289
EndChar

StartChar: Q
Encoding: 81 81 12
Width: 1000
VWidth: 0
Flags: H
LayerCount: 2
Back
Fore
SplineSet
927.2890625 359.510742188 m 4
 927.2890625 174.50390625 781.5078125 -11.578125 601.883789062 -55.8525390625 c 0
 574.044921875 -62.71484375 528.181640625 -68.283203125 499.509765625 -68.283203125 c 0
 356.76171875 -68.283203125 187.067382812 34.3037109375 120.729492188 160.70703125 c 0
 93.6826171875 212.243164062 71.7314453125 301.307617188 71.7314453125 359.510742188 c 0
 71.7314453125 465.791015625 136.29296875 609.245117188 215.842773438 679.720703125 c 0
 282.874023438 739.107421875 409.95703125 787.3046875 499.509765625 787.3046875 c 0
 573.09375 787.3046875 681.962890625 753.377929688 742.520507812 711.575195312 c 0
 644.952148438 570.221679688 l 0
 608.708007812 595.240234375 543.549804688 615.544921875 499.509765625 615.544921875 c 0
 445.913085938 615.544921875 369.853515625 586.69921875 329.735351562 551.15625 c 0
 282.125 508.9765625 243.484375 423.119140625 243.484375 359.510742188 c 0
 243.484375 324.67578125 256.622070312 271.37109375 272.809570312 240.526367188 c 0
 312.513671875 164.874023438 414.075195312 103.475585938 499.509765625 103.475585938 c 0
 516.669921875 103.475585938 544.119140625 106.80859375 560.780273438 110.915039062 c 0
 668.28515625 137.4140625 755.536132812 248.784179688 755.536132812 359.510742188 c 4
 927.2890625 359.510742188 l 4
EndSplineSet
Validated: 524289
EndChar

StartChar: P
Encoding: 80 80 13
Width: 1000
VWidth: 0
Flags: H
LayerCount: 2
Back
Fore
SplineSet
927.2890625 359.510742188 m 4
 927.2890625 180.193359375 787.106445312 -4.419921875 614.380859375 -52.5712890625 c 0
 583.26953125 -61.244140625 531.807617188 -68.283203125 499.509765625 -68.283203125 c 0
 366.329101562 -68.283203125 202.322265625 24.220703125 133.423828125 138.198242188 c 0
 99.369140625 194.534179688 71.7314453125 293.681640625 71.7314453125 359.510742188 c 0
 71.7314453125 453.171875 123.833007812 584.537109375 188.029296875 652.735351562 c 0
 257.953125 727.017578125 397.49609375 787.3046875 499.509765625 787.3046875 c 0
 557.713867188 787.3046875 646.77734375 765.350585938 698.313476562 738.30078125 c 0
 618.494140625 586.216796875 l 0
 587.649414062 602.40625 534.344726562 615.544921875 499.509765625 615.544921875 c 0
 438.455078125 615.544921875 354.938476562 579.462890625 313.088867188 535.004882812 c 0
 274.666992188 494.188476562 243.484375 415.567382812 243.484375 359.510742188 c 0
 243.484375 320.112304688 260.025390625 260.772460938 280.407226562 227.055664062 c 0
 321.643554688 158.83984375 419.801757812 103.475585938 499.509765625 103.475585938 c 0
 518.83984375 103.475585938 549.640625 107.688476562 568.260742188 112.879882812 c 0
 671.63671875 141.698242188 755.536132812 252.189453125 755.536132812 359.510742188 c 4
 927.2890625 359.510742188 l 4
EndSplineSet
Validated: 524289
EndChar

StartChar: O
Encoding: 79 79 14
Width: 1000
VWidth: 0
Flags: H
LayerCount: 2
Back
Fore
SplineSet
927.2890625 359.510742188 m 4
 927.2890625 185.752929688 792.659179688 2.779296875 626.774414062 -48.9140625 c 0
 592.462890625 -59.6064453125 535.44921875 -68.283203125 499.509765625 -68.283203125 c 0
 375.576171875 -68.283203125 217.854492188 14.4990234375 147.453125 116.498046875 c 0
 105.654296875 177.056640625 71.7314453125 285.926757812 71.7314453125 359.510742188 c 0
 71.7314453125 440.999023438 112.517578125 559.196289062 162.772460938 623.342773438 c 0
 233.678710938 713.849609375 384.537109375 787.3046875 499.509765625 787.3046875 c 0
 542.78515625 787.3046875 610.74609375 774.849609375 651.208007812 759.502929688 c 0
 590.301757812 598.90625 l 0
 566.084960938 608.090820312 525.41015625 615.544921875 499.509765625 615.544921875 c 0
 430.69921875 615.544921875 340.41015625 571.58203125 297.97265625 517.4140625 c 0
 267.895507812 479.022460938 243.484375 408.28125 243.484375 359.510742188 c 0
 243.484375 315.470703125 263.787109375 250.311523438 288.803710938 214.067382812 c 0
 330.939453125 153.020507812 425.3359375 103.475585938 499.509765625 103.475585938 c 0
 521.01953125 103.475585938 555.142578125 108.668945312 575.677734375 115.068359375 c 0
 674.959960938 146.006835938 755.536132812 255.516601562 755.536132812 359.510742188 c 4
 927.2890625 359.510742188 l 4
EndSplineSet
Validated: 524289
EndChar

StartChar: N
Encoding: 78 78 15
Width: 1000
VWidth: 0
Flags: H
LayerCount: 2
Back
Fore
SplineSet
927.2890625 359.510742188 m 4
 927.2890625 191.190429688 798.159179688 10.0224609375 639.051757812 -44.8837890625 c 0
 601.62109375 -57.80078125 539.106445312 -68.283203125 499.509765625 -68.283203125 c 0
 384.53515625 -68.283203125 233.673828125 5.173828125 162.767578125 95.6845703125 c 0
 112.515625 159.830078125 71.7314453125 278.0234375 71.7314453125 359.510742188 c 0
 71.7314453125 429.202148438 102.440429688 533.260742188 140.278320312 591.78515625 c 0
 210.057617188 699.711914062 370.993164062 787.3046875 499.509765625 787.3046875 c 0
 528.18359375 787.3046875 574.049804688 781.734375 601.890625 774.872070312 c 0
 560.78515625 608.104492188 l 0
 544.122070312 612.211914062 516.670898438 615.544921875 499.509765625 615.544921875 c 0
 422.592773438 615.544921875 326.272460938 563.12109375 284.509765625 498.526367188 c 0
 261.864257812 463.5 243.484375 401.220703125 243.484375 359.510742188 c 0
 243.484375 310.740234375 267.893554688 240.000976562 297.969726562 201.610351562 c 0
 340.407226562 147.440429688 430.697265625 103.475585938 499.509765625 103.475585938 c 0
 523.208984375 103.475585938 560.623046875 109.75 583.025390625 117.48046875 c 0
 678.250976562 150.341796875 755.536132812 258.771484375 755.536132812 359.510742188 c 4
 927.2890625 359.510742188 l 4
EndSplineSet
Validated: 524289
EndChar

StartChar: M
Encoding: 77 77 16
Width: 1000
VWidth: 0
Flags: H
LayerCount: 2
Back
Fore
SplineSet
927.2890625 359.510742188 m 0
 927.2890625 196.512695312 803.6015625 17.314453125 651.201171875 -40.484375 c 0
 610.740234375 -55.830078125 542.783203125 -68.283203125 499.509765625 -68.283203125 c 0
 393.233398438 -68.283203125 249.784179688 -3.7197265625 179.310546875 75.8330078125 c 0
 119.926757812 142.8671875 71.7314453125 269.954101562 71.7314453125 359.510742188 c 0
 71.7314453125 417.715820312 93.68359375 506.783203125 120.733398438 558.3203125 c 0
 187.072265625 684.719726562 356.763671875 787.3046875 499.509765625 787.3046875 c 0
 513.795898438 787.3046875 536.8984375 785.90625 551.080078125 784.184570312 c 0
 530.375 613.677734375 l 0
 521.887695312 614.708984375 508.059570312 615.544921875 499.509765625 615.544921875 c 0
 414.076171875 615.544921875 312.515625 554.1484375 272.811523438 478.498046875 c 0
 256.623046875 447.653320312 243.484375 394.346679688 243.484375 359.510742188 c 0
 243.484375 305.911132812 272.329101562 229.849609375 307.87109375 189.729492188 c 0
 350.048828125 142.1171875 435.903320312 103.475585938 499.509765625 103.475585938 c 0
 525.409179688 103.475585938 566.081054688 110.9296875 590.296875 120.11328125 c 0
 681.508789062 154.706054688 755.536132812 261.956054688 755.536132812 359.510742188 c 4
 927.2890625 359.510742188 l 0
EndSplineSet
Validated: 524289
EndChar

StartChar: L
Encoding: 76 76 17
Width: 1000
VWidth: 0
Flags: H
LayerCount: 2
Back
Fore
SplineSet
927.2890625 359.510742188 m 4
 927.2890625 201.724609375 808.983398438 24.6611328125 663.212890625 -35.720703125 c 0
 619.818359375 -53.6953125 546.479492188 -68.283203125 499.509765625 -68.283203125 c 0
 401.69921875 -68.283203125 266.184570312 -12.1484375 197.022460938 57.0166015625 c 0
 127.861328125 126.181640625 71.7314453125 261.698242188 71.7314453125 359.510742188 c 0
 71.7314453125 406.483398438 86.3203125 479.828125 104.295898438 523.225585938 c 0
 164.676757812 668.997070312 341.732421875 787.3046875 499.509765625 787.3046875 c 0
 499.512695312 787.3046875 499.515625 787.3046875 499.517578125 787.3046875 c 0
 499.514648438 615.544921875 l 0
 499.513671875 615.544921875 499.51171875 615.544921875 499.509765625 615.544921875 c 0
 405.080078125 615.544921875 299.112304688 544.73828125 262.974609375 457.494140625 c 0
 252.215820312 431.520507812 243.484375 387.624023438 243.484375 359.510742188 c 0
 243.484375 300.969726562 277.078125 219.86328125 318.470703125 178.467773438 c 0
 359.864257812 137.072265625 440.969726562 103.475585938 499.509765625 103.475585938 c 0
 527.62109375 103.475585938 571.514648438 112.20703125 597.486328125 122.96484375 c 0
 684.729492188 159.103515625 755.536132812 265.075195312 755.536132812 359.510742188 c 4
 927.2890625 359.510742188 l 4
EndSplineSet
Validated: 524289
EndChar

StartChar: K
Encoding: 75 75 18
Width: 1000
VWidth: 0
Flags: H
LayerCount: 2
Back
Fore
SplineSet
927.2890625 359.510742188 m 4
 927.2890625 132.69140625 743.360351562 -58.8046875 516.732421875 -67.9365234375 c 0
 511.981445312 -68.1279296875 504.265625 -68.283203125 499.509765625 -68.283203125 c 0
 281.66796875 -68.283203125 90.6435546875 107.94921875 73.1181640625 325.092773438 c 0
 72.3525390625 334.576171875 71.7314453125 349.99609375 71.7314453125 359.510742188 c 0
 71.7314453125 568.717773438 240.279296875 758.97265625 447.955078125 784.186523438 c 0
 468.654296875 613.678710938 l 0
 344.360351562 598.588867188 243.484375 484.721679688 243.484375 359.510742188 c 0
 243.484375 353.815429688 243.856445312 344.587890625 244.314453125 338.911132812 c 0
 254.803710938 208.951171875 369.131835938 103.475585938 499.509765625 103.475585938 c 0
 502.356445312 103.475585938 506.973632812 103.568359375 509.817382812 103.68359375 c 0
 645.454101562 109.1484375 755.536132812 223.758789062 755.536132812 359.510742188 c 4
 927.2890625 359.510742188 l 4
EndSplineSet
Validated: 524289
EndChar

StartChar: J
Encoding: 74 74 19
Width: 1000
VWidth: 0
Flags: H
LayerCount: 2
Back
Fore
SplineSet
927.2890625 359.510742188 m 4
 927.2890625 141.662109375 751.064453125 -49.3681640625 533.9296875 -66.896484375 c 0
 524.4453125 -67.662109375 509.025390625 -68.283203125 499.509765625 -68.283203125 c 0
 298.651367188 -68.283203125 109.487304688 92.6279296875 77.26953125 290.893554688 c 0
 74.2119140625 309.708007812 71.7314453125 340.448242188 71.7314453125 359.510742188 c 0
 71.7314453125 544.51953125 217.516601562 730.603515625 397.14453125 774.875976562 c 0
 438.244140625 608.106445312 l 0
 330.736328125 581.609375 243.484375 470.23828125 243.484375 359.510742188 c 0
 243.484375 348.1015625 244.969726562 329.704101562 246.798828125 318.443359375 c 0
 266.081054688 199.78125 379.295898438 103.475585938 499.509765625 103.475585938 c 0
 505.205078125 103.475585938 514.43359375 103.84765625 520.110351562 104.305664062 c 0
 650.065429688 114.795898438 755.536132812 229.127929688 755.536132812 359.510742188 c 4
 927.2890625 359.510742188 l 4
EndSplineSet
Validated: 524289
EndChar

StartChar: I
Encoding: 73 73 20
Width: 1000
VWidth: 0
Flags: H
LayerCount: 2
Back
Fore
SplineSet
927.2890625 359.510742188 m 4
 927.2890625 150.3046875 758.743164062 -39.94921875 551.0703125 -65.1650390625 c 0
 536.891601562 -66.88671875 513.79296875 -68.283203125 499.509765625 -68.283203125 c 0
 314.5078125 -68.283203125 128.431640625 77.505859375 84.16015625 257.138671875 c 0
 77.298828125 284.9765625 71.7314453125 330.838867188 71.7314453125 359.510742188 c 0
 71.7314453125 522.51171875 195.421875 701.709960938 347.826171875 759.5078125 c 0
 408.727539062 598.909179688 l 0
 317.513671875 564.317382812 243.484375 457.06640625 243.484375 359.510742188 c 0
 243.484375 342.350585938 246.817382812 314.90234375 250.922851562 298.241210938 c 0
 277.419921875 190.73046875 388.786132812 103.475585938 499.509765625 103.475585938 c 0
 508.05859375 103.475585938 521.8828125 104.311523438 530.369140625 105.341796875 c 0
 654.661132812 120.43359375 755.536132812 234.30078125 755.536132812 359.510742188 c 4
 927.2890625 359.510742188 l 4
EndSplineSet
Validated: 524289
EndChar

StartChar: H
Encoding: 72 72 21
Width: 1000
VWidth: 0
Flags: H
LayerCount: 2
Back
Fore
SplineSet
927.2890625 359.510742188 m 4
 927.2890625 158.645507812 766.384765625 -30.5244140625 568.127929688 -62.744140625 c 0
 549.3125 -65.8017578125 518.572265625 -68.283203125 499.509765625 -68.283203125 c 0
 329.39453125 -68.283203125 147.611328125 62.6806640625 93.744140625 224.047851562 c 0
 81.5927734375 260.448242188 71.7314453125 321.135742188 71.7314453125 359.510742188 c 0
 71.7314453125 502.267578125 174.318359375 671.96875 300.719726562 738.307617188 c 0
 380.534179688 586.220703125 l 0
 304.8828125 546.516601562 243.484375 444.950195312 243.484375 359.510742188 c 0
 243.484375 336.54296875 249.38671875 300.221679688 256.659179688 278.436523438 c 0
 288.8984375 181.858398438 397.696289062 103.475585938 499.509765625 103.475585938 c 0
 510.918945312 103.475585938 529.317382812 104.9609375 540.578125 106.791015625 c 0
 659.234375 126.07421875 755.536132812 239.29296875 755.536132812 359.510742188 c 4
 927.2890625 359.510742188 l 4
EndSplineSet
Validated: 524289
EndChar

StartChar: G
Encoding: 71 71 22
Width: 1000
VWidth: 0
Flags: H
LayerCount: 2
Back
Fore
SplineSet
927.2890625 359.510742188 m 4
 927.2890625 166.705078125 773.9765625 -21.07421875 585.073242188 -59.638671875 c 0
 561.69921875 -64.4111328125 523.3671875 -68.283203125 499.509765625 -68.283203125 c 0
 343.44140625 -68.283203125 167.130859375 48.25 105.958984375 191.8359375 c 0
 87.0654296875 236.185546875 71.7314453125 311.303710938 71.7314453125 359.510742188 c 0
 71.7314453125 483.451171875 154.512695312 641.1796875 256.512695312 711.583984375 c 0
 354.076171875 570.2265625 l 0
 293.029296875 528.08984375 243.484375 433.688476562 243.484375 359.510742188 c 0
 243.484375 330.658203125 252.662109375 285.700195312 263.969726562 259.157226562 c 0
 300.581054688 173.220703125 406.103515625 103.475585938 499.509765625 103.475585938 c 0
 513.788085938 103.475585938 536.73046875 105.793945312 550.719726562 108.649414062 c 0
 663.778320312 131.73046875 755.536132812 244.116210938 755.536132812 359.510742188 c 4
 927.2890625 359.510742188 l 4
EndSplineSet
Validated: 524289
EndChar

StartChar: F
Encoding: 70 70 23
Width: 1000
VWidth: 0
Flags: H
LayerCount: 2
Back
Fore
SplineSet
927.2890625 359.510742188 m 4
 927.2890625 174.502929688 781.506835938 -11.580078125 601.880859375 -55.853515625 c 0
 574.04296875 -62.71484375 528.180664062 -68.283203125 499.509765625 -68.283203125 c 0
 356.759765625 -68.283203125 187.064453125 34.3056640625 120.727539062 160.7109375 c 0
 93.681640625 212.247070312 71.7314453125 301.30859375 71.7314453125 359.510742188 c 0
 71.7314453125 465.79296875 136.295898438 609.25 215.848632812 679.725585938 c 0
 329.73828125 551.159179688 l 0
 282.125976562 508.979492188 243.484375 423.120117188 243.484375 359.510742188 c 0
 243.484375 324.676757812 256.622070312 271.373046875 272.80859375 240.529296875 c 0
 312.51171875 164.875976562 414.07421875 103.475585938 499.509765625 103.475585938 c 0
 516.669921875 103.475585938 544.118164062 106.80859375 560.779296875 110.915039062 c 0
 668.28515625 137.413085938 755.536132812 248.783203125 755.536132812 359.510742188 c 4
 927.2890625 359.510742188 l 4
EndSplineSet
Validated: 524289
EndChar

StartChar: E
Encoding: 69 69 24
Width: 1000
VWidth: 0
Flags: H
LayerCount: 2
Back
Fore
SplineSet
927.2890625 359.510742188 m 4
 927.2890625 182.059570312 788.961914062 -2.0263671875 618.522460938 -51.39453125 c 0
 586.3359375 -60.7177734375 533.018554688 -68.283203125 499.509765625 -68.283203125 c 0
 369.443359375 -68.283203125 207.465820312 20.939453125 137.951171875 130.875976562 c 0
 101.397460938 188.684570312 71.7314453125 291.11328125 71.7314453125 359.510742188 c 0
 71.7314453125 449.071289062 119.930664062 576.163085938 179.3203125 643.19921875 c 0
 307.876953125 529.297851562 l 0
 272.33203125 489.177734375 243.484375 413.112304688 243.484375 359.510742188 c 0
 243.484375 318.575195312 261.240234375 257.271484375 283.1171875 222.672851562 c 0
 324.721679688 156.875976562 421.665039062 103.475585938 499.509765625 103.475585938 c 0
 519.565429688 103.475585938 551.475585938 108.00390625 570.739257812 113.583984375 c 0
 672.747070312 143.130859375 755.536132812 253.305664062 755.536132812 359.510742188 c 4
 927.2890625 359.510742188 l 4
EndSplineSet
Validated: 524289
EndChar

StartChar: D
Encoding: 68 68 25
Width: 1000
VWidth: 0
Flags: HW
LayerCount: 2
Back
Fore
SplineSet
927.2890625 359.510742188 m 4
 927.2890625 189.390625 796.330078125 7.6005859375 634.970703125 -46.26953125 c 0
 598.5703125 -58.4208984375 537.884765625 -68.283203125 499.509765625 -68.283203125 c 0
 381.577148438 -68.283203125 228.366210938 8.2373046875 157.520507812 102.522460938 c 0
 110.165039062 165.546875 71.7314453125 280.676757812 71.7314453125 359.510742188 c 0
 71.7314453125 433.098632812 105.658203125 541.973632812 147.461914062 602.53515625 c 0
 288.809570312 504.9609375 l 0
 263.790039062 468.71484375 243.484375 403.552734375 243.484375 359.510742188 c 0
 243.484375 312.329101562 266.487304688 243.422851562 294.829101562 205.703125 c 0
 337.23046875 149.2734375 428.927734375 103.475585938 499.509765625 103.475585938 c 0
 522.477539062 103.475585938 558.797851562 109.37890625 580.583007812 116.651367188 c 0
 677.157226562 148.892578125 755.536132812 257.693359375 755.536132812 359.510742188 c 4
 927.2890625 359.510742188 l 4
EndSplineSet
Validated: 524289
EndChar

StartChar: C
Encoding: 67 67 26
Width: 1000
VWidth: 0
Flags: H
LayerCount: 2
Back
Fore
SplineSet
927.2890625 359.510742188 m 4
 927.2890625 196.51171875 803.600585938 17.3134765625 651.19921875 -40.4853515625 c 0
 610.73828125 -55.830078125 542.782226562 -68.283203125 499.509765625 -68.283203125 c 0
 393.232421875 -68.283203125 249.78125 -3.7177734375 179.307617188 75.8369140625 c 0
 119.924804688 142.870117188 71.7314453125 269.956054688 71.7314453125 359.510742188 c 0
 71.7314453125 417.717773438 93.685546875 506.788085938 120.736328125 558.327148438 c 0
 272.814453125 478.501953125 l 0
 256.624023438 447.65625 243.484375 394.34765625 243.484375 359.510742188 c 0
 243.484375 305.912109375 272.328125 229.8515625 307.869140625 189.731445312 c 0
 350.046875 142.118164062 435.90234375 103.475585938 499.509765625 103.475585938 c 0
 525.408203125 103.475585938 566.080078125 110.928710938 590.295898438 120.11328125 c 0
 681.508789062 154.705078125 755.536132812 261.955078125 755.536132812 359.510742188 c 4
 927.2890625 359.510742188 l 4
EndSplineSet
Validated: 524289
EndChar

StartChar: B
Encoding: 66 66 27
Width: 1000
VWidth: 0
Flags: H
LayerCount: 2
Back
Fore
SplineSet
927.2890625 359.510742188 m 4
 927.2890625 203.4375 810.760742188 27.12109375 667.181640625 -34.052734375 c 0
 622.833007812 -52.9482421875 547.715820312 -68.283203125 499.509765625 -68.283203125 c 0
 404.471679688 -68.283203125 271.711914062 -14.8486328125 203.170898438 50.990234375 c 0
 130.616210938 120.685546875 71.7314453125 258.90234375 71.7314453125 359.510742188 c 0
 71.7314453125 402.7890625 84.1865234375 470.754882812 99.5341796875 511.220703125 c 0
 260.125 450.30859375 l 0
 250.939453125 426.08984375 243.484375 385.412109375 243.484375 359.510742188 c 0
 243.484375 299.296875 278.7265625 216.573242188 322.151367188 174.861328125 c 0
 363.172851562 135.456054688 442.629882812 103.475585938 499.509765625 103.475585938 c 0
 528.361328125 103.475585938 573.318359375 112.654296875 599.861328125 123.962890625 c 0
 685.793945312 160.575195312 755.536132812 266.100585938 755.536132812 359.510742188 c 4
 927.2890625 359.510742188 l 4
EndSplineSet
Validated: 524289
EndChar

StartChar: A
Encoding: 65 65 28
Width: 1000
VWidth: 0
Flags: H
LayerCount: 2
Back
Fore
SplineSet
927.2890625 359.510742188 m 4
 927.2890625 210.181640625 817.798828125 37.0322265625 682.891601562 -26.982421875 c 0
 634.845703125 -49.7802734375 552.690429688 -68.283203125 499.509765625 -68.283203125 c 0
 415.352539062 -68.283203125 294.14453125 -25.083984375 228.956054688 28.14453125 c 0
 142.16796875 99.0107421875 71.7314453125 247.462890625 71.7314453125 359.510742188 c 0
 71.7314453125 388.1875 77.3017578125 434.05859375 84.1650390625 461.901367188 c 0
 250.92578125 420.791992188 l 0
 246.818359375 404.126953125 243.484375 376.673828125 243.484375 359.510742188 c 0
 243.484375 292.450195312 285.640625 203.6015625 337.583984375 161.188476562 c 0
 376.598632812 129.331054688 449.141601562 103.475585938 499.509765625 103.475585938 c 0
 531.338867188 103.475585938 580.508789062 114.549804688 609.263671875 128.194335938 c 0
 690.005859375 166.5078125 755.536132812 270.13671875 755.536132812 359.510742188 c 4
 927.2890625 359.510742188 l 4
EndSplineSet
Validated: 524289
EndChar

StartChar: x
Encoding: 120 120 29
Width: 1000
VWidth: 0
Flags: H
LayerCount: 2
Back
Fore
SplineSet
927.2890625 359.510742188 m 4
 927.2890625 137.216796875 747.211914062 -54.0859375 525.331054688 -67.50390625 c 0
 518.2109375 -67.9345703125 506.643554688 -68.283203125 499.509765625 -68.283203125 c 0
 290.305664062 -68.283203125 100.057617188 100.274414062 74.84765625 307.9609375 c 0
 245.349609375 328.658203125 l 0
 260.4375 204.357421875 374.301757812 103.475585938 499.509765625 103.475585938 c 0
 503.779296875 103.475585938 510.703125 103.684570312 514.963867188 103.942382812 c 0
 647.759765625 111.97265625 755.536132812 226.467773438 755.536132812 359.510742188 c 4
 927.2890625 359.510742188 l 4
EndSplineSet
Validated: 524289
EndChar

StartChar: w
Encoding: 119 119 30
Width: 1000
VWidth: 0
Flags: HW
LayerCount: 2
Back
Fore
SplineSet
927.2890625 359.510742188 m 4
 927.2890625 150.302734375 758.741210938 -39.9521484375 551.065429688 -65.1650390625 c 0
 536.887695312 -66.88671875 513.791015625 -68.283203125 499.509765625 -68.283203125 c 0
 314.50390625 -68.283203125 128.42578125 77.509765625 84.1572265625 257.1484375 c 0
 250.921875 298.247070312 l 0
 277.416015625 190.733398438 388.784179688 103.475585938 499.509765625 103.475585938 c 0
 508.057617188 103.475585938 521.880859375 104.311523438 530.366210938 105.341796875 c 0
 654.66015625 120.431640625 755.536132812 234.299804688 755.536132812 359.510742188 c 4
 927.2890625 359.510742188 l 4
EndSplineSet
Validated: 524289
EndChar

StartChar: v
Encoding: 118 118 31
Width: 1000
VWidth: 0
Flags: H
LayerCount: 2
Back
Fore
SplineSet
927.2890625 359.510742188 m 4
 927.2890625 162.706054688 770.185546875 -25.806640625 576.611328125 -61.27734375 c 0
 555.506835938 -65.14453125 520.965820312 -68.283203125 499.509765625 -68.283203125 c 0
 336.51171875 -68.283203125 157.318359375 55.4140625 99.5234375 207.828125 c 0
 260.118164062 268.728515625 l 0
 294.708007812 177.508789062 401.956054688 103.475585938 499.509765625 103.475585938 c 0
 512.3515625 103.475585938 533.024414062 105.354492188 545.655273438 107.668945312 c 0
 661.509765625 128.8984375 755.536132812 241.723632812 755.536132812 359.510742188 c 4
 927.2890625 359.510742188 l 4
EndSplineSet
Validated: 524289
EndChar

StartChar: u
Encoding: 117 117 32
Width: 1000
VWidth: 0
Flags: H
LayerCount: 2
Back
Fore
SplineSet
927.2890625 359.510742188 m 4
 927.2890625 174.500976562 781.50390625 -11.5830078125 601.875976562 -55.8544921875 c 0
 574.040039062 -62.7158203125 528.1796875 -68.283203125 499.509765625 -68.283203125 c 0
 356.755859375 -68.283203125 187.05859375 34.3095703125 120.72265625 160.719726562 c 0
 272.805664062 240.534179688 l 0
 312.5078125 164.877929688 414.071289062 103.475585938 499.509765625 103.475585938 c 0
 516.668945312 103.475585938 544.116210938 106.80859375 560.776367188 110.9140625 c 0
 668.283203125 137.411132812 755.536132812 248.782226562 755.536132812 359.510742188 c 4
 927.2890625 359.510742188 l 4
EndSplineSet
Validated: 524289
EndChar

StartChar: t
Encoding: 116 116 33
Width: 1000
VWidth: 0
Flags: H
LayerCount: 2
Back
Fore
SplineSet
927.2890625 359.510742188 m 4
 927.2890625 174.500976562 781.50390625 -11.5830078125 601.875976562 -55.8544921875 c 0
 574.040039062 -62.7158203125 528.1796875 -68.283203125 499.509765625 -68.283203125 c 0
 356.755859375 -68.283203125 187.05859375 34.3095703125 120.72265625 160.719726562 c 0
 272.805664062 240.534179688 l 0
 312.5078125 164.877929688 414.071289062 103.475585938 499.509765625 103.475585938 c 0
 516.668945312 103.475585938 544.116210938 106.80859375 560.776367188 110.9140625 c 0
 668.283203125 137.411132812 755.536132812 248.782226562 755.536132812 359.510742188 c 4
 927.2890625 359.510742188 l 4
EndSplineSet
Validated: 524289
EndChar

StartChar: s
Encoding: 115 115 34
Width: 1000
VWidth: 0
Flags: H
LayerCount: 2
Back
Fore
SplineSet
927.2890625 359.510742188 m 4
 927.2890625 196.509765625 803.598632812 17.310546875 651.194335938 -40.4873046875 c 0
 610.735351562 -55.8310546875 542.780273438 -68.283203125 499.509765625 -68.283203125 c 0
 393.228515625 -68.283203125 249.774414062 -3.7138671875 179.30078125 75.8447265625 c 0
 307.865234375 189.736328125 l 0
 350.043945312 142.120117188 435.900390625 103.475585938 499.509765625 103.475585938 c 0
 525.407226562 103.475585938 566.078125 110.928710938 590.29296875 120.112304688 c 0
 681.506835938 154.704101562 755.536132812 261.954101562 755.536132812 359.510742188 c 4
 927.2890625 359.510742188 l 4
EndSplineSet
Validated: 524289
EndChar

StartChar: r
Encoding: 114 114 35
Width: 1000
VWidth: 0
Flags: H
LayerCount: 2
Back
Fore
SplineSet
927.2890625 359.510742188 m 4
 927.2890625 206.829101562 814.293945312 32.060546875 675.067382812 -30.5986328125 c 0
 628.846679688 -51.400390625 550.196289062 -68.283203125 499.509765625 -68.283203125 c 0
 409.950195312 -68.283203125 282.859375 -20.080078125 215.826171875 39.314453125 c 0
 329.725585938 167.873046875 l 0
 369.844726562 132.326171875 445.908203125 103.475585938 499.509765625 103.475585938 c 0
 529.845703125 103.475585938 576.91796875 113.580078125 604.581054688 126.030273438 c 0
 687.908203125 163.53125 755.536132812 268.130859375 755.536132812 359.510742188 c 4
 927.2890625 359.510742188 l 4
EndSplineSet
Validated: 524289
EndChar

StartChar: q
Encoding: 113 113 36
Width: 1000
VWidth: 0
Flags: H
LayerCount: 2
Back
Fore
SplineSet
927.2890625 359.510742188 m 4
 927.2890625 216.75390625 824.702148438 47.052734375 698.30078125 -19.287109375 c 0
 646.767578125 -46.3330078125 557.708984375 -68.283203125 499.509765625 -68.283203125 c 0
 425.921875 -68.283203125 317.047851562 -34.353515625 256.48828125 7.4541015625 c 0
 354.061523438 148.8046875 l 0
 390.306640625 123.783203125 455.467773438 103.475585938 499.509765625 103.475585938 c 0
 534.341796875 103.475585938 587.643554688 116.61328125 618.486328125 132.799804688 c 0
 694.137695312 172.50390625 755.536132812 274.0703125 755.536132812 359.510742188 c 4
 927.2890625 359.510742188 l 4
EndSplineSet
Validated: 524289
EndChar

StartChar: p
Encoding: 112 112 37
Width: 1000
VWidth: 0
Flags: H
LayerCount: 2
Back
Fore
SplineSet
927.2890625 359.510742188 m 4
 927.2890625 226.322265625 834.786132812 62.3076171875 720.807617188 -6.5927734375 c 0
 664.475585938 -40.646484375 565.334960938 -68.283203125 499.509765625 -68.283203125 c 0
 441.302734375 -68.283203125 352.232421875 -46.3271484375 300.693359375 -19.2734375 c 0
 380.518554688 132.80859375 l 0
 411.364257812 116.6171875 464.672851562 103.475585938 499.509765625 103.475585938 c 0
 538.90625 103.475585938 598.2421875 120.016601562 631.95703125 140.397460938 c 0
 700.172851562 181.634765625 755.536132812 279.796875 755.536132812 359.510742188 c 4
 927.2890625 359.510742188 l 4
EndSplineSet
Validated: 524289
EndChar

StartChar: o
Encoding: 111 111 38
Width: 1000
VWidth: 0
Flags: H
LayerCount: 2
Back
Fore
SplineSet
927.2890625 359.510742188 m 4
 927.2890625 235.569335938 844.506835938 77.8408203125 742.5078125 7.4365234375 c 0
 681.952148438 -34.3603515625 573.08984375 -68.283203125 499.509765625 -68.283203125 c 0
 456.231445312 -68.283203125 388.264648438 -55.826171875 347.797851562 -40.4765625 c 0
 408.7109375 120.118164062 l 0
 432.9296875 110.931640625 473.607421875 103.475585938 499.509765625 103.475585938 c 0
 543.546875 103.475585938 608.702148438 123.778320312 644.944335938 148.794921875 c 0
 705.991210938 190.931640625 755.536132812 285.33203125 755.536132812 359.510742188 c 4
 927.2890625 359.510742188 l 4
EndSplineSet
Validated: 524289
EndChar

StartChar: n
Encoding: 110 110 39
Width: 1000
VWidth: 0
Flags: H
LayerCount: 2
Back
Fore
SplineSet
927.2890625 359.510742188 m 4
 927.2890625 244.528320312 853.83203125 93.6611328125 763.321289062 22.751953125 c 0
 699.178710938 -27.5 580.9921875 -68.283203125 499.509765625 -68.283203125 c 0
 470.83203125 -68.283203125 424.958984375 -62.7119140625 397.115234375 -55.84765625 c 0
 438.2265625 110.918945312 l 0
 454.891601562 106.810546875 482.346679688 103.475585938 499.509765625 103.475585938 c 0
 548.27734375 103.475585938 619.01171875 127.884765625 657.401367188 157.959960938 c 0
 711.571289062 200.399414062 755.536132812 290.693359375 755.536132812 359.510742188 c 4
 927.2890625 359.510742188 l 4
EndSplineSet
Validated: 524289
EndChar

StartChar: m
Encoding: 109 109 40
Width: 1000
VWidth: 0
Flags: H
LayerCount: 2
Back
Fore
SplineSet
927.2890625 359.510742188 m 4
 927.2890625 253.227539062 862.724609375 109.771484375 783.171875 39.294921875 c 0
 716.141601562 -20.0888671875 589.060546875 -68.283203125 499.509765625 -68.283203125 c 0
 485.220703125 -68.283203125 462.110351562 -66.884765625 447.92578125 -65.162109375 c 0
 468.63671875 105.34375 l 0
 477.126953125 104.3125 490.958007812 103.475585938 499.509765625 103.475585938 c 0
 553.106445312 103.475585938 629.1640625 132.3203125 669.282226562 167.861328125 c 0
 716.89453125 210.041015625 755.536132812 295.900390625 755.536132812 359.510742188 c 4
 927.2890625 359.510742188 l 4
EndSplineSet
Validated: 524289
EndChar

StartChar: l
Encoding: 108 108 41
Width: 1000
VWidth: 0
Flags: H
LayerCount: 2
Back
Fore
SplineSet
927.2890625 359.510742188 m 4
 927.2890625 261.693359375 871.154296875 126.171875 801.98828125 57.0068359375 c 0
 732.826171875 -12.1533203125 597.31640625 -68.283203125 499.509765625 -68.283203125 c 0
 499.50390625 -68.283203125 499.494140625 -68.283203125 499.487304688 -68.283203125 c 0
 499.497070312 103.475585938 l 0
 499.5 103.475585938 499.506835938 103.475585938 499.509765625 103.475585938 c 0
 558.046875 103.475585938 639.150390625 137.069335938 680.54296875 178.461914062 c 0
 721.939453125 219.857421875 755.536132812 300.966796875 755.536132812 359.510742188 c 4
 927.2890625 359.510742188 l 4
EndSplineSet
Validated: 524289
EndChar

StartChar: k
Encoding: 107 107 42
Width: 1000
VWidth: 0
Flags: H
LayerCount: 2
Back
Fore
SplineSet
927.2890625 359.510742188 m 4
 927.2890625 150.294921875 758.734375 -39.9599609375 551.05078125 -65.1669921875 c 0
 530.357421875 105.340820312 l 0
 654.65625 120.426757812 755.536132812 234.294921875 755.536132812 359.510742188 c 4
 927.2890625 359.510742188 l 4
EndSplineSet
Validated: 524289
EndChar

StartChar: i
Encoding: 105 105 43
Width: 1000
VWidth: 0
Flags: H
LayerCount: 2
Back
Fore
SplineSet
927.2890625 359.510742188 m 4
 927.2890625 196.502929688 803.592773438 17.3017578125 651.180664062 -40.4921875 c 0
 590.28515625 120.108398438 l 0
 681.50390625 154.698242188 755.536132812 261.950195312 755.536132812 359.510742188 c 4
 927.2890625 359.510742188 l 4
EndSplineSet
Validated: 524289
EndChar

StartChar: h
Encoding: 104 104 44
Width: 1000
VWidth: 0
Flags: H
LayerCount: 2
Back
Fore
SplineSet
927.2890625 359.510742188 m 4
 927.2890625 216.748046875 824.696289062 47.0439453125 698.287109375 -19.2939453125 c 0
 618.478515625 132.795898438 l 0
 694.133789062 172.499023438 755.536132812 274.067382812 755.536132812 359.510742188 c 4
 927.2890625 359.510742188 l 4
EndSplineSet
Validated: 524289
EndChar

StartChar: g
Encoding: 103 103 45
Width: 1000
VWidth: 0
Flags: H
LayerCount: 2
Back
Fore
SplineSet
927.2890625 359.510742188 m 4
 927.2890625 235.564453125 844.501953125 77.83203125 742.49609375 7.4287109375 c 0
 644.936523438 148.7890625 l 0
 705.987304688 190.92578125 755.536132812 285.329101562 755.536132812 359.510742188 c 4
 927.2890625 359.510742188 l 4
EndSplineSet
Validated: 524289
EndChar

StartChar: f
Encoding: 102 102 46
Width: 1000
VWidth: 0
Flags: H
LayerCount: 2
Back
Fore
SplineSet
927.2890625 359.510742188 m 0
 927.2890625 253.22265625 862.719726562 109.76171875 783.161132812 39.28515625 c 0
 669.275390625 168.85546875 l 4
 716.891601562 211.036132812 755.536132812 295.897460938 755.536132812 359.510742188 c 4
 755.536132812 359.510742188 755.536132812 359.510742188 755.536132812 359.510742188 c 0
 927.2890625 359.510742188 l 0
EndSplineSet
Validated: 524293
EndChar

StartChar: e
Encoding: 101 101 47
Width: 1000
VWidth: 0
Flags: H
LayerCount: 2
Back
Fore
SplineSet
927.2890625 359.510742188 m 4
 927.2890625 269.9453125 879.084960938 142.84765625 819.690429688 75.810546875 c 0
 691.137695312 189.715820312 l 0
 726.685546875 229.837890625 755.536132812 305.905273438 755.536132812 359.510742188 c 4
 927.2890625 359.510742188 l 4
EndSplineSet
Validated: 524289
EndChar

StartChar: d
Encoding: 100 100 48
Width: 1000
VWidth: 0
Flags: H
LayerCount: 2
Back
Fore
SplineSet
927.2890625 359.510742188 m 4
 927.2890625 285.916992188 893.358398438 177.037109375 851.549804688 116.473632812 c 0
 710.206054688 214.052734375 l 0
 735.228515625 250.299804688 755.536132812 315.46484375 755.536132812 359.510742188 c 4
 927.2890625 359.510742188 l 4
EndSplineSet
Validated: 524289
EndChar

StartChar: c
Encoding: 99 99 49
Width: 1000
VWidth: 0
Flags: H
LayerCount: 2
Back
Fore
SplineSet
927.2890625 359.510742188 m 0
 927.2890625 301.298828125 905.33203125 212.22265625 878.27734375 160.680664062 c 0
 726.202148438 241.510742188 l 4
 742.39453125 272.358398438 755.536132812 324.670898438 755.536132812 359.510742188 c 4
 755.536132812 359.510742188 755.536132812 359.510742188 755.536132812 359.510742188 c 0
 927.2890625 359.510742188 l 0
EndSplineSet
Validated: 524293
EndChar

StartChar: b
Encoding: 98 98 50
Width: 1000
VWidth: 0
Flags: H
LayerCount: 2
Back
Fore
SplineSet
927.2890625 359.510742188 m 0
 927.2890625 316.227539062 914.831054688 248.254882812 899.48046875 207.786132812 c 0
 738.892578125 268.703125 l 0
 748.080078125 292.923828125 755.536132812 333.60546875 755.536132812 359.510742188 c 4
 755.536132812 359.510742188 755.536132812 359.510742188 755.536132812 359.510742188 c 0
 927.2890625 359.510742188 l 0
EndSplineSet
Validated: 524293
EndChar

StartChar: period
Encoding: 46 46 51
Width: 1000
VWidth: 0
Flags: H
LayerCount: 2
Back
Fore
SplineSet
927.2890625 359.510742188 m 4
 927.2890625 345.21875 925.890625 322.104492188 924.166992188 307.916015625 c 0
 753.666992188 328.631835938 l 0
 754.69921875 337.123046875 755.536132812 350.95703125 755.536132812 359.510742188 c 4
 927.2890625 359.510742188 l 4
EndSplineSet
Validated: 524289
EndChar

StartChar: Z
Encoding: 90 90 52
Width: 1000
VWidth: 0
Flags: HW
LayerCount: 2
Back
Fore
SplineSet
220.442382812 359.510742188 m 0
 220.442382812 205.379882812 345.385742188 80.4326171875 499.509765625 80.4326171875 c 0
 653.634765625 80.4326171875 778.578125 205.379882812 778.578125 359.510742188 c 0
 778.578125 513.640625 653.634765625 638.587890625 499.509765625 638.587890625 c 0
 345.385742188 638.587890625 220.442382812 513.640625 220.442382812 359.510742188 c 0
97.3984375 359.510742188 m 0
 97.3984375 581.598632812 277.4296875 761.63671875 499.509765625 761.63671875 c 0
 721.590820312 761.63671875 901.622070312 581.598632812 901.622070312 359.510742188 c 0
 901.622070312 137.421875 721.590820312 -42.615234375 499.509765625 -42.615234375 c 0
 277.4296875 -42.615234375 97.3984375 137.421875 97.3984375 359.510742188 c 0
243.484375 359.510742188 m 0
 243.484375 500.9140625 358.111328125 615.544921875 499.509765625 615.544921875 c 0
 640.909179688 615.544921875 755.536132812 500.9140625 755.536132812 359.510742188 c 0
 755.536132812 218.106445312 640.909179688 103.475585938 499.509765625 103.475585938 c 0
 358.111328125 103.475585938 243.484375 218.106445312 243.484375 359.510742188 c 0
71.7314453125 359.510742188 m 0
 71.7314453125 123.24609375 263.25390625 -68.283203125 499.509765625 -68.283203125 c 0
 735.766601562 -68.283203125 927.2890625 123.24609375 927.2890625 359.510742188 c 0
 927.2890625 595.774414062 735.766601562 787.3046875 499.509765625 787.3046875 c 0
 263.25390625 787.3046875 71.7314453125 595.774414062 71.7314453125 359.510742188 c 0
EndSplineSet
Validated: 524297
EndChar
